<svg xmlns="http://www.w3.org/2000/svg" xmlns:xlink="http://www.w3.org/1999/xlink" width="464.142" height="295.581" viewBox="0 0 464.142 295.581"><defs><style>.a{fill:#6d8599;}.b{fill:#fec230;}.c{fill:#7e95c4;}.d,.j{fill:#818181;}.d{fill-rule:evenodd;}.e{fill:#52595e;}.f{fill:#ff5c5c;}.g{fill:#ff9797;}.h,.l,.r,.s{fill:#fff;}.i{fill:none;stroke:#818181;}.j,.l{stroke:rgba(0,0,0,0);}.j,.r{font-size:2px;}.j,.s{font-family:Inter-Regular, Inter;}.k{fill:#f99c00;}.m{fill:#eb1538;}.n{fill:#fbbe17;}.o{fill:#394b5c;}.p{fill:#f27677;}.q{fill:#e8831f;}.r{font-family:Inter-SemiBold, Inter;font-weight:600;}.s{font-size:1px;}.t{filter:url(#a);}</style><filter id="a" x="153.111" y="34.65" width="157.601" height="31.29" filterUnits="userSpaceOnUse"><feOffset dx="1" dy="2" input="SourceAlpha"/><feGaussianBlur stdDeviation="1.5" result="b"/><feFlood flood-opacity="0.161"/><feComposite operator="in" in2="b"/><feComposite in="SourceGraphic"/></filter></defs><g transform="translate(-577.563 -604.919)"><g transform="translate(639.522 633.132)"><g transform="translate(0 0)"><path class="a" d="M1148.163,644.7h-3.276a1.75,1.75,0,0,1-1.672-1.212,13.069,13.069,0,0,0-.849-2.04,1.752,1.752,0,0,1,.322-2.046l2.319-2.319a1.77,1.77,0,0,0,0-2.5l-1.409-1.409a1.771,1.771,0,0,0-2.5,0l-2.319,2.319a1.753,1.753,0,0,1-2.047.322,13.032,13.032,0,0,0-2.04-.848,1.751,1.751,0,0,1-1.212-1.672v-3.276a1.77,1.77,0,0,0-1.771-1.77h-1.993a1.77,1.77,0,0,0-1.771,1.77v3.276a1.751,1.751,0,0,1-1.212,1.672,13.064,13.064,0,0,0-2.04.848,1.753,1.753,0,0,1-2.046-.322l-2.319-2.319a1.771,1.771,0,0,0-2.5,0l-1.409,1.409a1.77,1.77,0,0,0,0,2.5l2.319,2.319a1.753,1.753,0,0,1,.322,2.046,13.022,13.022,0,0,0-.849,2.04,1.751,1.751,0,0,1-1.672,1.212h-3.275a1.771,1.771,0,0,0-1.771,1.77v1.993a1.771,1.771,0,0,0,1.771,1.77h3.275a1.751,1.751,0,0,1,1.672,1.212,13.02,13.02,0,0,0,.849,2.04,1.753,1.753,0,0,1-.322,2.046l-2.319,2.319a1.77,1.77,0,0,0,0,2.5l1.409,1.409a1.77,1.77,0,0,0,2.5,0l2.319-2.319a1.752,1.752,0,0,1,2.046-.321,13.041,13.041,0,0,0,2.04.848,1.751,1.751,0,0,1,1.212,1.672v3.275a1.77,1.77,0,0,0,1.771,1.77h1.993a1.77,1.77,0,0,0,1.771-1.77v-3.275a1.751,1.751,0,0,1,1.212-1.672,13.058,13.058,0,0,0,2.04-.848,1.753,1.753,0,0,1,2.047.322l2.319,2.319a1.77,1.77,0,0,0,2.5,0l1.409-1.409a1.77,1.77,0,0,0,0-2.5l-2.319-2.319a1.752,1.752,0,0,1-.322-2.046,13.067,13.067,0,0,0,.849-2.04,1.75,1.75,0,0,1,1.672-1.212h3.276a1.77,1.77,0,0,0,1.77-1.77V646.47A1.77,1.77,0,0,0,1148.163,644.7Zm-10.778,4.1a6.806,6.806,0,1,1-8.007-8.005A6.812,6.812,0,0,1,1137.385,648.8Z" transform="translate(-849.805 -615.715)"/><g transform="translate(263.795 63.648)"><path class="b" d="M1132.957,766.2l7.682,4.2-7.682,4.2-4.2,7.682-4.2-7.682-7.682-4.2,7.682-4.2,4.2-7.682Z" transform="translate(-1116.873 -758.516)"/><path class="b" d="M1190.886,806l4.448,2.433-4.448,2.433-2.433,4.448-2.433-4.448-4.447-2.433,4.447-2.433,2.433-4.448Z" transform="translate(-1156.184 -784.662)"/></g><g transform="translate(47.413)"><path class="b" d="M612.333,604l-7.682,4.2,7.682,4.2,4.2,7.682,4.2-7.682,7.682-4.2-7.682-4.2-4.2-7.682Z" transform="translate(-589.268 -596.316)"/><path class="b" d="M569.9,643.8l-4.448,2.432,4.448,2.433,2.433,4.448,2.433-4.448,4.448-2.433-4.448-2.432-2.433-4.448Z" transform="translate(-565.449 -622.462)"/></g><g transform="translate(0 62.111)"><path class="c" d="M540.631,758.754l42.654-4.155-35.4,28.747L545.8,771.891l-7.6-3.152,32.383-10.813L542.1,764.331l-2.218-1.924-3.735-3.241Z" transform="translate(-500.234 -754.599)"/><g transform="translate(0 14.283)"><path class="d" d="M513.33,798.023l.467,1.172q.974-.392,1.958-.759l-.445-1.18Q514.315,797.628,513.33,798.023Z" transform="translate(-486.369 -794.801)"/><path class="d" d="M524.4,793.968l-2,.706.429,1.186,1.98-.7Z" transform="translate(-491.879 -792.803)"/><path class="d" d="M533.572,791l-2.029.637.39,1.2,2-.628Z" transform="translate(-497.435 -790.998)"/><path class="d" d="M489.318,810.069l-.573-1.124-1.884.994.6,1.108Z" transform="translate(-470.287 -801.903)"/><path class="d" d="M497.442,804.726c-.641.3-1.29.587-1.923.907l.552,1.135c.624-.315,1.265-.6,1.9-.9Z" transform="translate(-475.547 -799.339)"/><path class="d" d="M504.313,801.691l.506,1.155c.638-.286,1.284-.558,1.93-.825l-.484-1.165C505.612,801.126,504.959,801.4,504.313,801.691Z" transform="translate(-480.89 -796.988)"/><path class="d" d="M464.232,824.443c-.552.459-1.121.9-1.657,1.375l.833.946c.516-.463,1.07-.885,1.6-1.329Z" transform="translate(-455.53 -811.319)"/><path class="d" d="M470.275,819.956l.74,1.021c.553-.422,1.138-.8,1.718-1.188l-.7-1.051C471.443,819.134,470.845,819.522,470.275,819.956Z" transform="translate(-460.209 -807.853)"/><path class="d" d="M480.838,814.722l-.629-1.093c-.623.341-1.223.727-1.832,1.1l.665,1.071C479.638,815.434,480.225,815.057,480.838,814.722Z" transform="translate(-465.131 -804.749)"/><path class="d" d="M447.6,847.575l-1.152-.512c-.287.683-.531,1.393-.75,2.1l1.219.324C447.118,848.846,447.339,848.2,447.6,847.575Z" transform="translate(-445.276 -825.063)"/><path class="d" d="M451.876,839.159l-1.011-.754c-.443.579-.815,1.219-1.224,1.827l1.09.635C451.116,840.3,451.459,839.7,451.876,839.159Z" transform="translate(-447.672 -819.802)"/><path class="d" d="M457.878,831.86l-.883-.9-1.495,1.576.951.829Z" transform="translate(-451.232 -815.278)"/><path class="d" d="M448.727,875.866c.359.639.748,1.261,1.122,1.891l1.052-.7c-.348-.591-.714-1.173-1.051-1.769Z" transform="translate(-447.116 -842.215)"/><path class="d" d="M446.542,866.53l-1.234.256.293,1.081a5.958,5.958,0,0,0,.346,1.059l1.179-.447a5.1,5.1,0,0,1-.315-.967Z" transform="translate(-445.039 -836.891)"/><path class="d" d="M445.906,858.126l.045-1.012-1.253-.148-.053,1.128a5.274,5.274,0,0,0,.015,1.125l1.258-.083A4.434,4.434,0,0,1,445.906,858.126Z" transform="translate(-444.623 -831.08)"/><path class="d" d="M468.278,897.456c.569.436,1.119.9,1.721,1.285l.727-1.03c-.587-.376-1.118-.826-1.67-1.248Z" transform="translate(-458.995 -855.078)"/><path class="d" d="M460.811,891.168l1.6,1.45.82-.958-1.542-1.4Z" transform="translate(-454.459 -851.311)"/><path class="d" d="M455.239,883.216l-1,.772.664.865.739.794.93-.851-.707-.759Z" transform="translate(-450.467 -847.03)"/><path class="d" d="M493.27,912.561l1.918.925.527-1.146-1.888-.911Z" transform="translate(-474.18 -864.172)"/><path class="d" d="M484.633,908.094l1.878,1.013.583-1.118-1.843-.994Z" transform="translate(-468.932 -861.477)"/><path class="d" d="M476.3,903.115c.585.413,1.213.749,1.818,1.128l.649-1.082c-.591-.37-1.208-.7-1.777-1.1Z" transform="translate(-463.871 -858.478)"/><path class="d" d="M520.608,922.515l-.422,1.189,2.007.686.4-1.2Z" transform="translate(-490.535 -870.907)"/><path class="d" d="M511.1,920.323c.654.272,1.321.509,1.985.754l.439-1.183c-.657-.242-1.317-.477-1.963-.746Z" transform="translate(-485.014 -868.862)"/><path class="d" d="M502.158,916.642c.649.286,1.3.578,1.956.832l.479-1.166c-.653-.252-1.29-.54-1.93-.822Z" transform="translate(-479.581 -866.636)"/><path class="d" d="M548.31,931.037l-.33,1.217,2.046.547.315-1.221Z" transform="translate(-507.422 -876.085)"/><path class="d" d="M539.02,928.427l-.357,1.21,2.035.589.341-1.214Z" transform="translate(-501.761 -874.499)"/><path class="d" d="M529.822,925.613l-.387,1.2,2.023.632.37-1.206Z" transform="translate(-496.154 -872.789)"/><path class="d" d="M576.493,937.775l-.26,1.234,2.072.424.249-1.236Z" transform="translate(-524.588 -880.179)"/><path class="d" d="M567.072,935.7l-.282,1.229,2.065.462.27-1.232Z" transform="translate(-518.851 -878.918)"/><path class="d" d="M557.718,933.47l-.3,1.224,2.056.5.292-1.227Z" transform="translate(-513.154 -877.563)"/><path class="d" d="M604.978,943.072l-.2,1.245,2.089.331.193-1.246Z" transform="translate(-541.93 -883.397)"/><path class="d" d="M595.471,941.444l-.221,1.242,2.083.363.211-1.243Z" transform="translate(-536.142 -882.408)"/><path class="d" d="M586.017,939.691l-.24,1.238,2.077.4.23-1.24Z" transform="translate(-530.387 -881.343)"/><path class="d" d="M635.764,947.313l-2.09-.23-.145,1.253,2.106.232Z" transform="translate(-559.402 -885.835)"/><path class="d" d="M624.1,945.893l-.166,1.25,2.1.27.155-1.252Z" transform="translate(-553.571 -885.111)"/><path class="d" d="M614.579,944.556l-.185,1.247,2.093.3.175-1.249Z" transform="translate(-547.775 -884.299)"/></g></g><g transform="translate(89.52 2.13)"><rect class="e" width="159.164" height="258.217" rx="7"/><circle class="f" cx="2.795" cy="2.795" r="2.795" transform="translate(76.787 7.604)"/><path class="g" d="M686.964,1053.616a6.85,6.85,0,0,0,6.727,6.967H828.249a6.85,6.85,0,0,0,6.727-6.967V941.682H686.964Z" transform="translate(-681.388 -808.288)"/><path class="h" d="M826.542,618.85H779.106a4.766,4.766,0,0,0-4.766,4.766,4.766,4.766,0,0,1-4.766,4.766H752.365a4.766,4.766,0,0,1-4.766-4.766,4.767,4.767,0,0,0-4.767-4.766H695.4a8.433,8.433,0,0,0-8.434,8.433V745.531H834.976V627.283A8.433,8.433,0,0,0,826.542,618.85Z" transform="translate(-681.388 -612.137)"/><g transform="translate(15.454 46.599)"><g transform="translate(0 0)"><line class="i" x2="128.094" transform="translate(0 11.898)"/><text class="j" transform="translate(0.12 2)"><tspan x="0" y="0">Depositor Mobile Number</tspan></text></g></g></g><g transform="translate(56.032 109.644)"><rect class="e" width="207.453" height="144.705" rx="10" transform="translate(10.053 13.019)"/><g transform="translate(50.773 17.968)"><ellipse class="k" cx="26.906" cy="26.637" rx="26.906" ry="26.637"/><ellipse class="b" cx="22.597" cy="22.371" rx="22.597" ry="22.371" transform="translate(4.308 4.265)"/><path class="l" d="M13.994-6.822H11.26a5.443,5.443,0,0,0-.886-2.263l2.937.01.7-2.561H1.285L.534-8.661h3.62c1.858,0,2.946.693,3.389,1.839H1.227L.534-4.3H7.64c-.4,1.329-1.589,2.137-3.485,2.137H.823L.833-.025l6.74,8.107h4.015V7.908L5.5.447c3.591-.472,5.334-2.2,5.748-4.747h2.06Z" transform="translate(19.819 26.218)"/></g><g transform="translate(95.259)"><ellipse class="k" cx="26.906" cy="26.637" rx="26.906" ry="26.637"/><ellipse class="b" cx="22.597" cy="22.371" rx="22.597" ry="22.371" transform="translate(4.308 4.265)"/><path class="l" d="M13.994-6.822H11.26a5.443,5.443,0,0,0-.886-2.263l2.937.01.7-2.561H1.285L.534-8.661h3.62c1.858,0,2.946.693,3.389,1.839H1.227L.534-4.3H7.64c-.4,1.329-1.589,2.137-3.485,2.137H.823L.833-.025l6.74,8.107h4.015V7.908L5.5.447c3.591-.472,5.334-2.2,5.748-4.747h2.06Z" transform="translate(19.675 28.49)"/></g><g transform="translate(131.216 17.969)"><ellipse class="k" cx="26.906" cy="26.637" rx="26.906" ry="26.637"/><ellipse class="b" cx="22.597" cy="22.371" rx="22.597" ry="22.371" transform="translate(4.308 4.265)"/><path class="l" d="M13.994-6.822H11.26a5.443,5.443,0,0,0-.886-2.263l2.937.01.7-2.561H1.285L.534-8.661h3.62c1.858,0,2.946.693,3.389,1.839H1.227L.534-4.3H7.64c-.4,1.329-1.589,2.137-3.485,2.137H.823L.833-.025l6.74,8.107h4.015V7.908L5.5.447c3.591-.472,5.334-2.2,5.748-4.747h2.06Z" transform="translate(19.819 25.825)"/></g><rect class="m" width="182.921" height="101.884" rx="6" transform="translate(25.215 47.589)"/><rect class="e" width="108.848" height="41.619" rx="7" transform="translate(0 100.908)"/><rect class="n" width="11.318" height="24.224" rx="3.541" transform="translate(89.238 110.155)"/><g transform="translate(166.345 29.865)"><path class="h" d="M1033.7,955.5l-3.666,2,3.666,2,2,3.666,2.005-3.666,3.666-2-3.666-2-2.005-3.666Z" transform="translate(-1022.691 -951.837)"/><path class="h" d="M1013.448,974.495l-2.123,1.161,2.123,1.161,1.161,2.123,1.161-2.123,2.123-1.161-2.123-1.161-1.161-2.123Z" transform="translate(-1011.325 -964.314)"/></g><g transform="translate(54.141 19.859)"><path class="h" d="M747.759,930l-3.666,2.005,3.666,2,2.005,3.666,2-3.666,3.666-2L751.769,930l-2-3.666Z" transform="translate(-736.752 -926.339)"/><path class="h" d="M727.508,949l-2.122,1.161,2.122,1.161,1.161,2.122,1.161-2.122,2.123-1.161L729.83,949l-1.161-2.122Z" transform="translate(-725.386 -938.816)"/></g></g><g transform="translate(273.237 102.023)"><path class="o" d="M1254.8,864.257a6.16,6.16,0,0,1,.255-5.267,5.24,5.24,0,0,1,4.458-2.681,2.316,2.316,0,0,1,1.2.28,3.527,3.527,0,0,1,.734.691,10.733,10.733,0,0,0,3.781,2.676,47.891,47.891,0,0,0,5.584,1.525,4.078,4.078,0,0,1,3.268,5.722c-.3,1.377-.3,2.777-.552,4.165-.192,1.074-.144,1.1-.333,2.395a8.6,8.6,0,0,1-1.121,3.051c-.317.592-.461,2.749-1.129,2.812-.451.042-.323-1.661-.6-2.024a3.4,3.4,0,0,1-.514-1.25c-.536-2.185-.63-4.626-2.092-6.335a4.934,4.934,0,0,0-3.238-1.654c-1.335-.133-2.539.76-3.814.6A8.25,8.25,0,0,1,1254.8,864.257Z" transform="translate(-1209.836 -856.309)"/><rect class="p" width="7.372" height="9.726" transform="translate(53.102 18.203)"/><path class="p" d="M1266.227,882.825s-.409,9.658,2.5,11.165,6.809-.925,8.149-1.954a8.407,8.407,0,0,0,2.146-3.221,6.024,6.024,0,0,0,.972-2.709c-.04-1.159-.1-2.66-1.171-1.924-1.7,1.169-.9.3-.9.3a2.325,2.325,0,0,0-.652-2.609C1275.979,880.446,1266.263,877.571,1266.227,882.825Z" transform="translate(-1217.05 -870.579)"/><g transform="translate(54.061 153.809)"><path class="p" d="M1310.632,1248.352l.06,3.161c.307-.026,4.232-.081,4.232-.081l-.061-3.161Z" transform="translate(-1298.103 -1248.272)"/><path class="o" d="M1290.222,1253.73s-9.061,4.764-9.248,4.849c-.083.039-.536.154-1.014.271a1.594,1.594,0,0,0-1.257,1.552,1.618,1.618,0,0,0,.051.5c.1.131,17.633-.337,17.633-.337s.3-5.641-.63-5.844S1291.669,1255.331,1290.222,1253.73Z" transform="translate(-1278.703 -1251.588)"/><g transform="translate(3.791 4.865)"><path class="h" d="M1293.937,1260.67l.856,1.476-.56.325-.869-1.5Z" transform="translate(-1291.402 -1260.67)"/><path class="h" d="M1291.366,1262.027l.818,1.409-.56.325-.83-1.432Z" transform="translate(-1289.84 -1261.494)"/><path class="h" d="M1288.935,1263.31l.787,1.357-.56.325-.8-1.38Z" transform="translate(-1288.363 -1262.274)"/></g></g><g transform="translate(32.065 153.786)"><path class="p" d="M1255.2,1248.248l-.312,3.161c.307-.023,4.231-.034,4.231-.034l.191-3.161Z" transform="translate(-1242.238 -1248.214)"/><path class="o" d="M1234.241,1253.524s-9.112,4.664-9.3,4.748c-.083.037-.537.147-1.017.259a1.6,1.6,0,0,0-1.274,1.538,1.624,1.624,0,0,0,.046.5c.1.131,17.636-.142,17.636-.142s.364-5.638-.566-5.851S1235.671,1255.141,1234.241,1253.524Z" transform="translate(-1222.65 -1251.44)"/><g transform="translate(3.819 4.75)"><path class="h" d="M1237.989,1260.318l.839,1.485-.563.318-.852-1.507Z" transform="translate(-1235.439 -1260.318)"/><path class="h" d="M1235.4,1261.646l.8,1.419-.563.318-.815-1.441Z" transform="translate(-1233.867 -1261.125)"/><path class="h" d="M1232.959,1262.9l.771,1.366-.563.318-.785-1.389Z" transform="translate(-1232.382 -1261.888)"/></g></g><path class="o" d="M1252.956,1052.272l-1.526,77.376,5.971-.2,11.1-77.1Z" transform="translate(-1208.072 -975.375)"/><path class="o" d="M1276.325,1053.995l10.974,75.726h6.965l-.11-77.258-18.472-.071Z" transform="translate(-1222.807 -975.448)"/><path class="p" d="M1188.127,920.034a6.5,6.5,0,0,1-1.169-2.323c-.226-1.147-.819-4.258-1.4-3.47s.257,2.433-.683,1.781-2.6-4.336-3.131-3.632a3.973,3.973,0,0,0-.142,4.658,7.969,7.969,0,0,0,2.891,3.216,24.86,24.86,0,0,1,2.025,2.1Z" transform="translate(-1165.238 -890.329)"/><path class="q" d="M1216.011,930.44l-9.061,7.381a.522.522,0,0,1-.913.086l-11.737-8.025-2.449,3.025,15.2,14.244a.294.294,0,0,0,.472-.033l9.367-7.148Z" transform="translate(-1171.872 -901.012)"/><path class="m" d="M1253.42,925.319l4.641-1.747,4.322-1.669c2.376,1.739,4.831,1.348,7.372-.449l4.062,1.605,8.512,3.353-1.7,46.493-6.875-.029v.062h-15.827v-.118l-3.761-.033Z" transform="translate(-1209.28 -895.891)"/><path class="m" d="M1303.2,933.381s6.609,16.875,6.276,21.647-21.042,1.5-21.042,1.5-1.2-1.956-.37-3.343a6.17,6.17,0,0,1,1.387-1.776l12.53.324S1294.17,929.484,1303.2,933.381Z" transform="translate(-1230.15 -902.859)"/><path class="p" d="M1282.409,976.587a1,1,0,0,1-1.013-.837c-.242-.906-1.078-2.371-1.287-1.743s-3.069-1.046-3.347.418-.14,3.487.767,4.114a39.744,39.744,0,0,0,3.868,1.953Z" transform="translate(-1223.384 -927.699)"/><g transform="translate(0 7.675)"><circle class="k" cx="25.937" cy="25.937" r="25.937" transform="translate(0 13.192) rotate(-14.732)"/><circle class="b" cx="21.784" cy="21.784" r="21.784" transform="translate(1.921 23.715) rotate(-30.015)"/><path class="l" d="M13.994-6.822H11.26a5.443,5.443,0,0,0-.886-2.263l2.937.01.7-2.561H1.285L.534-8.661h3.62c1.858,0,2.946.693,3.389,1.839H1.227L.534-4.3H7.64c-.4,1.329-1.589,2.137-3.485,2.137H.823L.833-.025l6.74,8.107h4.015V7.908L5.5.447c3.591-.472,5.334-2.2,5.748-4.747h2.06Z" transform="translate(24.476 33.538)"/></g></g><g transform="translate(94.653 8.938)"><g transform="translate(0 0)"><g class="t" transform="matrix(1, 0, 0, 1, -156.61, -37.15)"><path class="m" d="M4,0H144.6a4,4,0,0,1,4,4V22.29a0,0,0,0,1,0,0H0a0,0,0,0,1,0,0V4A4,4,0,0,1,4,0Z" transform="translate(156.61 37.15)"/></g><g transform="translate(96.59 5.573)"><g transform="translate(0 0)"><text class="r" transform="translate(0 7.573)"><tspan x="0" y="0">₹ 2300.00</tspan></text><path class="h" d="M4.563,2.175l-.939.939-.939-.939-.511.511.939.939-.939.939.511.511.939-.939.939.939.511-.511-.939-.939.939-.939ZM3.625,0A3.625,3.625,0,1,0,7.249,3.625,3.621,3.621,0,0,0,3.625,0Zm0,6.524a2.9,2.9,0,1,1,2.9-2.9A2.9,2.9,0,0,1,3.625,6.524Z" transform="translate(31.824 0.494) rotate(45)"/><text class="s" transform="translate(3.715 1)"><tspan x="0" y="0">BALANCE</tspan></text></g></g><path class="h" d="M7.285,3.053V4.285L8.927,2.642,7.285,1V2.232A3.279,3.279,0,0,0,4.509,7.266l.6-.6a2.41,2.41,0,0,1-.287-1.15A2.466,2.466,0,0,1,7.285,3.053Zm2.776.714-.6.6A2.459,2.459,0,0,1,7.285,7.98V6.748L5.642,8.391l1.642,1.642V8.8A3.279,3.279,0,0,0,10.06,3.767Z" transform="translate(131.833 5.675)"/></g><g transform="translate(7.743 7.43)"><text class="r" transform="translate(14.547 2)"><tspan x="0" y="0">Cash Collection</tspan></text><path class="h" d="M10.57,6.874h-5l2.3-2.3L7.285,4,4,7.285,7.285,10.57l.579-.579L5.573,7.7h5Z" transform="translate(-4 -2.702)"/></g></g><rect class="e" width="31.578" height="9.288" rx="4.644" transform="translate(154.093 5.223)"/></g><circle class="h" cx="1.858" cy="1.858" r="1.858" transform="translate(167.096 7.08)"/></g><g transform="translate(577.563 604.919)"><g transform="translate(0)"><path class="m" d="M459.891,41.153A4.153,4.153,0,1,1,455.738,37,4.152,4.152,0,0,1,459.891,41.153Z" transform="translate(-265.445 -37)"/><path class="m" d="M467.576,69.931a4.154,4.154,0,1,1-4.153-4.153A4.153,4.153,0,0,1,467.576,69.931Z" transform="translate(-459.268 -38.053)"/><circle class="m" cx="4.153" cy="4.153" r="4.153" transform="translate(382.277 84.438)"/><path class="m" d="M488.027,71.441a4.153,4.153,0,1,1-4.153-4.153A4.154,4.154,0,0,1,488.027,71.441Z" transform="translate(-23.885 -17.778)"/><circle class="m" cx="2.101" cy="2.101" r="2.101" transform="translate(402.406 45.53)"/><circle class="m" cx="2.101" cy="2.101" r="2.101" transform="translate(48.967 66.989)"/><circle class="m" cx="2.101" cy="2.101" r="2.101" transform="translate(146.684 10.517)"/><path class="m" d="M530.685,44.051a2.1,2.1,0,1,1-2.1-2.1A2.1,2.1,0,0,1,530.685,44.051Z" transform="translate(-181.166 -31.431)"/></g></g></g></svg>