<?xml version="1.0" standalone="no"?>
<!DOCTYPE svg PUBLIC "-//W3C//DTD SVG 20010904//EN"
 "http://www.w3.org/TR/2001/REC-SVG-20010904/DTD/svg10.dtd">
<svg version="1.0" xmlns="http://www.w3.org/2000/svg"
 width="3000.000000pt" height="2000.000000pt" viewBox="0 0 3000.000000 2000.000000"
 preserveAspectRatio="xMidYMid meet">

<g transform="translate(0.000000,2000.000000) scale(0.100000,-0.100000)"
fill="#000000" stroke="none">
<path d="M16786 17290 l-79 -159 -45 6 c-39 5 -44 4 -40 -13 2 -10 12 -20 23
-22 11 -2 26 -5 32 -7 9 -3 -9 -48 -53 -135 -36 -73 -64 -134 -61 -136 5 -5
689 36 696 42 2 2 -15 32 -38 67 -22 35 -41 71 -41 80 0 9 -8 21 -18 26 -11 6
-78 100 -151 210 -73 111 -136 201 -140 201 -3 0 -42 -72 -85 -160z"/>
<path d="M15673 17205 c-8 -22 -5 -23 62 -25 82 -2 85 -2 85 14 0 8 -17 16
-46 20 -72 9 -94 7 -101 -9z"/>
<path d="M15255 17201 c-44 -4 -60 -10 -60 -21 0 -12 14 -15 60 -16 73 0 95 4
95 21 0 10 -27 29 -33 23 -1 -1 -29 -4 -62 -7z"/>
<path d="M15435 17200 c-13 -21 9 -31 68 -29 62 2 92 13 81 30 -7 12 -141 11
-149 -1z"/>
<path d="M15912 17193 c3 -15 16 -19 76 -21 57 -2 72 0 72 11 0 21 -22 27 -92
27 -51 0 -59 -2 -56 -17z"/>
<path d="M16150 17185 c-16 -19 -1 -25 80 -32 61 -5 70 -4 70 11 0 20 -8 23
-82 29 -40 4 -60 2 -68 -8z"/>
<path d="M15018 17181 c-61 -7 -74 -13 -63 -32 6 -8 28 -10 78 -5 39 4 73 8
75 11 9 8 -8 35 -20 34 -7 -1 -39 -5 -70 -8z"/>
<path d="M16380 17157 c0 -18 15 -23 91 -32 39 -5 59 -3 64 5 13 21 -10 31
-83 37 -61 5 -72 4 -72 -10z"/>
<path d="M14790 17153 c-57 -9 -70 -14 -70 -30 0 -14 9 -15 67 -9 74 8 83 11
83 32 0 14 -24 16 -80 7z"/>
<path d="M14523 17108 c-29 -6 -43 -15 -43 -25 0 -13 9 -15 60 -10 66 7 104
22 95 38 -7 11 -55 10 -112 -3z"/>
<path d="M14311 17065 c-101 -25 -87 -57 17 -36 60 12 78 23 68 40 -8 13 -15
13 -85 -4z"/>
<path d="M14073 17007 c-52 -15 -74 -33 -49 -43 30 -12 152 28 141 47 -8 12
-38 10 -92 -4z"/>
<path d="M6095 16984 c-429 -76 -764 -421 -825 -849 -8 -59 -10 -1737 -8
-6375 l3 -6295 22 -75 c64 -223 186 -412 346 -538 84 -65 176 -120 259 -152
37 -15 65 -29 62 -33 -4 -3 -215 -7 -470 -7 l-464 0 -146 127 c-144 126 -145
127 -139 162 4 30 26 576 52 1301 6 197 -4 420 -47 945 -28 350 -39 496 -60
869 -19 311 -75 676 -156 998 -18 74 -22 103 -14 123 5 14 10 57 10 94 0 37 3
109 7 160 l6 92 40 -41 c45 -45 86 -60 170 -60 83 0 142 18 177 53 36 37 68
102 76 159 4 24 17 54 30 68 19 21 26 45 36 128 10 90 10 108 -5 156 -12 36
-24 57 -37 61 -15 5 -35 54 -89 218 -119 364 -179 557 -216 701 -20 76 -41
148 -47 160 -25 50 -92 128 -127 151 -40 25 -155 64 -321 110 -52 15 -136 42
-186 62 l-91 35 4 77 c6 111 20 158 55 178 32 20 69 71 86 122 17 47 15 146
-3 180 -10 20 -16 80 -21 191 -7 158 -7 163 12 155 10 -5 35 -9 54 -9 29 -1
36 3 44 27 20 56 -56 150 -195 242 l-51 33 31 7 c138 30 -36 140 -241 153 -84
5 -89 4 -164 -32 -42 -20 -115 -59 -161 -87 l-84 -51 -20 21 c-11 12 -28 21
-39 21 -17 0 -60 -43 -60 -61 0 -4 -18 -47 -41 -95 -22 -48 -45 -110 -51 -136
-14 -60 -7 -92 67 -289 l53 -144 -28 -11 c-58 -25 -63 -91 -15 -189 38 -78 88
-125 135 -125 22 0 34 -12 69 -67 71 -111 73 -108 -114 -162 -210 -61 -294
-94 -374 -149 -91 -61 -144 -115 -174 -175 -31 -65 -126 -333 -205 -582 -33
-104 -82 -256 -107 -337 -33 -103 -52 -147 -64 -151 -27 -7 -91 -186 -91 -256
0 -26 8 -42 35 -67 19 -18 35 -40 35 -48 0 -20 90 -167 335 -551 109 -170 220
-345 247 -387 l50 -78 -17 -220 c-9 -121 -16 -312 -16 -423 0 -111 -6 -312
-14 -447 -23 -371 -70 -1185 -110 -1860 -19 -333 -38 -642 -41 -688 l-6 -82
-158 -140 -158 -139 -623 -1 c-342 0 -625 -2 -627 -4 -22 -23 47 -26 624 -26
l614 0 0 -30 c0 -20 9 -40 26 -57 24 -24 30 -25 92 -20 65 5 210 50 284 88 36
18 74 19 894 19 l857 0 51 -29 c120 -69 313 -126 381 -114 50 10 72 59 54 122
-3 12 1585 14 10869 15 5981 1 10876 -2 10878 -6 8 -12 1012 -10 1019 2 4 6
127 10 336 10 284 0 329 2 329 15 0 13 -46 15 -327 17 l-328 3 -5 700 -5 700
-160 5 -160 5 4 69 c3 68 3 68 -20 61 -13 -4 -36 -14 -51 -21 -48 -25 -55 -20
-61 52 -2 36 -6 67 -8 68 -2 2 -25 1 -51 -3 -76 -12 -108 -3 -123 33 l-13 31
-7 -27 c-4 -15 0 -58 9 -97 24 -104 23 -111 -19 -111 -32 0 -35 -2 -35 -30 l0
-30 -160 0 c-148 0 -160 -1 -170 -20 -7 -13 -10 -244 -10 -702 l1 -683 -1121
-3 c-616 -1 -1120 1 -1120 5 0 5 28 18 63 31 273 98 508 358 604 667 l28 90 0
6350 0 6350 -23 85 c-101 366 -371 633 -744 733 l-83 22 -3035 0 -3035 0 -89
-23 c-375 -95 -653 -373 -749 -749 l-22 -88 0 -6325 0 -6325 27 -100 c37 -132
112 -281 192 -382 101 -127 267 -250 413 -305 35 -12 63 -26 63 -31 0 -4
-1325 -7 -2946 -7 -1700 0 -2943 4 -2940 9 3 5 18 12 33 16 44 11 184 84 248
130 77 55 211 195 260 271 56 87 103 194 133 303 l27 96 0 6310 c0 5143 -2
6322 -13 6375 -20 101 -51 187 -99 282 -133 260 -361 441 -658 521 l-80 22
-2975 2 c-2526 1 -2987 -1 -3055 -13z m2435 -265 c0 -6 17 -48 38 -93 46 -97
110 -171 184 -211 48 -27 64 -30 163 -33 95 -3 117 -1 160 18 101 43 191 146
236 271 l22 59 1024 0 c1130 0 1088 2 1263 -64 47 -17 117 -51 157 -74 80 -47
213 -167 277 -251 62 -80 133 -227 164 -339 25 -93 26 -107 27 -357 l0 -260
-3315 0 -3315 0 0 260 c0 235 2 268 22 341 105 395 401 667 803 737 14 2 490
5 1058 6 746 1 1032 -2 1032 -10z m12665 -36 c45 -121 113 -210 201 -263 56
-34 63 -35 172 -39 110 -3 115 -2 177 28 81 40 146 111 196 215 22 44 39 86
39 93 0 11 183 13 1058 11 l1057 -3 80 -23 c100 -29 223 -87 305 -142 145 -99
287 -277 350 -443 59 -151 64 -188 64 -472 l1 -260 -3315 0 -3315 0 -3 205
c-4 300 20 435 108 610 137 271 407 469 707 520 26 4 510 8 1074 9 l1026 1 18
-47z m-8947 -6915 c-3 -5411 -4 -5575 -22 -5641 l-18 -67 -3279 0 -3278 0 -12
43 c-6 23 -15 69 -20 102 -5 34 -9 2505 -9 5598 l0 5537 3320 0 3320 0 -2
-5572z m12652 23 c0 -3673 -3 -5566 -10 -5601 -6 -29 -15 -70 -20 -92 l-11
-38 -3279 0 -3278 0 -18 68 c-18 64 -19 298 -21 5640 l-3 5572 3320 0 3320 0
0 -5549z m-20967 322 c15 -24 27 -49 27 -56 0 -7 5 -18 12 -25 8 -8 8 -35 -1
-111 -22 -186 -63 -295 -153 -408 -62 -79 -116 -107 -173 -92 -139 39 -299
254 -365 492 l-20 70 32 66 c31 63 32 65 38 36 4 -25 10 -31 37 -33 31 -3 124
38 201 89 17 11 32 16 32 10 0 -23 40 -51 75 -51 42 0 102 50 142 117 l25 43
32 -52 c18 -29 44 -72 59 -95z m130 -159 c0 -54 -30 -131 -60 -156 -15 -12
-16 -10 -9 16 4 17 12 68 17 115 11 93 25 125 43 94 5 -10 10 -41 9 -69z
m-801 -106 c19 -57 38 -111 43 -120 10 -24 -6 -23 -39 3 -54 43 -107 190 -75
210 28 18 36 7 71 -93z m642 -505 c-6 -169 -28 -225 -102 -262 -114 -58 -236
-22 -286 84 -9 19 -21 74 -26 122 -6 49 -13 106 -16 127 l-6 40 48 -43 c127
-112 217 -106 344 22 19 20 38 36 42 36 4 1 4 -56 2 -126z m652 -129 c12 -47
-26 -817 -41 -834 -7 -8 -27 -43 -44 -78 l-32 -63 -26 21 c-151 118 -170 141
-220 253 -44 101 -50 110 -102 146 l-56 38 -9 68 -9 69 44 37 c76 64 474 369
481 369 4 0 11 -12 14 -26z m-1431 -126 c115 -72 239 -149 275 -173 36 -23
100 -63 143 -89 42 -27 79 -51 81 -55 3 -4 14 -75 26 -158 20 -140 21 -153 6
-175 -18 -25 -21 -69 -6 -84 6 -6 11 -118 12 -274 l3 -265 110 3 c61 2 120 5
130 7 11 2 38 4 60 4 68 2 67 -2 35 190 -16 96 -27 177 -25 181 3 4 24 10 47
13 24 4 55 9 69 13 25 6 30 -1 107 -135 l81 -141 -78 -118 c-98 -147 -216
-295 -315 -392 -42 -41 -76 -80 -76 -87 0 -73 235 174 402 423 46 68 86 123
90 124 3 0 16 -17 29 -37 12 -21 53 -89 92 -151 l69 -113 -7 -200 c-9 -230
-11 -235 -98 -263 -78 -26 -630 -56 -1020 -56 -179 0 -196 2 -220 20 -27 22
-42 71 -52 180 -4 36 -22 196 -41 355 -47 395 -140 1242 -154 1395 -5 69 -13
142 -15 164 -5 34 -3 38 12 32 10 -4 112 -66 228 -138z m-272 6 c6 -88 56
-578 72 -694 l4 -35 -14 30 c-7 17 -35 92 -61 168 -38 108 -52 137 -66 137
-10 0 -18 -6 -18 -14 0 -8 29 -96 65 -197 36 -100 63 -184 62 -186 -2 -2 -37
38 -77 87 -80 99 -110 124 -110 91 0 -11 50 -82 111 -158 61 -76 113 -143 116
-149 4 -10 -101 -211 -137 -263 l-15 -21 -111 29 c-116 31 -270 86 -279 101
-3 5 -1 19 4 32 6 13 33 97 61 188 80 260 259 790 285 845 25 51 76 115 93
115 5 0 12 -47 15 -106z m1822 -128 c31 -125 98 -341 225 -731 33 -98 58 -181
56 -182 -2 -2 -60 -13 -130 -24 l-126 -20 -70 62 -70 62 0 66 c0 39 21 170 51
320 27 139 48 260 45 268 -13 34 -32 0 -53 -93 l-23 -99 5 120 c2 66 7 193 11
283 l7 163 19 -32 c11 -18 35 -91 53 -163z m-701 -88 c3 -24 10 -97 16 -163 6
-66 13 -133 16 -149 l6 -29 -43 8 c-24 4 -96 11 -159 14 l-115 6 -16 125 c-9
69 -18 138 -20 155 l-4 30 130 21 c188 32 182 32 189 -18z m118 -271 c15 -12
45 -65 70 -121 l43 -100 139 -120 c249 -216 490 -432 555 -499 63 -65 64 -66
59 -111 -7 -58 -44 -132 -81 -160 -37 -28 -175 -36 -229 -13 -53 22 -162 186
-408 615 -51 90 -100 166 -107 169 -7 3 -55 -2 -106 -11 -130 -22 -195 -26
-223 -14 -25 12 -124 136 -124 156 0 6 34 13 78 17 130 10 143 31 42 71 -38
15 -70 30 -70 34 0 9 122 1 239 -16 117 -18 133 -13 111 33 -36 79 -40 93 -28
93 7 0 25 -10 40 -23z m-332 -148 c0 -5 -11 -9 -25 -9 -14 0 -25 6 -25 14 0 9
8 12 25 8 14 -2 25 -8 25 -13z m760 -226 l0 -66 -24 22 -25 23 22 44 c11 24
22 44 24 44 2 0 3 -30 3 -67z m-1504 -609 c32 -283 60 -487 70 -515 15 -40 15
-52 4 -79 -7 -17 -16 -27 -21 -23 -4 4 -75 150 -157 324 l-149 316 17 84 c14
68 31 111 94 227 43 79 80 141 83 139 2 -3 29 -216 59 -473z m2008 335 c10
-51 -10 -219 -26 -219 -10 0 -248 221 -248 231 0 8 179 37 225 35 39 -1 40 -2
49 -47z m-2615 7 c52 -27 301 -106 332 -106 10 0 19 -5 19 -11 0 -30 -24 -145
-33 -156 -13 -18 -143 -17 -247 3 -111 20 -184 58 -188 98 -4 34 46 196 60
196 5 0 30 -11 57 -24z m21 -302 c30 -8 110 -18 177 -21 l122 -6 14 -36 c8
-20 80 -174 161 -344 l145 -307 -39 -99 c-22 -54 -40 -103 -40 -110 0 -26 -19
-5 -84 97 -222 342 -526 827 -526 837 0 8 10 6 70 -11z m1484 -1849 c58 -231
121 -475 140 -543 87 -301 135 -569 275 -1557 92 -644 103 -740 91 -783 -15
-55 -12 -140 7 -179 11 -23 30 -42 60 -56 23 -11 43 -25 43 -29 0 -4 -362 -8
-805 -8 -443 0 -805 4 -805 9 0 12 31 37 77 60 24 12 50 32 58 45 21 32 30
121 17 168 -9 32 -5 57 25 165 42 157 167 666 183 748 14 70 64 311 85 405 8
36 30 139 49 230 19 91 60 280 91 420 68 311 144 662 225 1035 63 290 70 317
76 300 2 -5 51 -199 108 -430z m23303 -1737 c-3 -7 -5 -2 -5 12 0 14 2 19 5
13 2 -7 2 -19 0 -25z m-15027 -64 c0 -3 -15 -38 -34 -78 -115 -250 -333 -437
-611 -523 l-90 -28 -2489 -3 c-2731 -2 -2550 -6 -2727 58 -159 57 -307 165
-419 305 -51 65 -128 200 -145 253 l-6 22 3260 0 c1794 0 3261 -3 3261 -6z
m12650 -6 c-1 -23 -98 -196 -144 -257 -142 -184 -379 -325 -606 -360 -56 -9
-707 -11 -2555 -9 l-2480 3 -89 28 c-213 67 -374 177 -500 342 -51 66 -146
233 -146 257 0 4 1467 8 3260 8 2601 0 3260 -3 3260 -12z m-21800 -1131 c0
-62 -16 -90 -69 -116 -20 -11 -57 -36 -81 -56 -56 -47 -118 -78 -229 -115
-126 -42 -201 -40 -201 5 0 33 35 71 189 206 131 115 137 119 171 112 47 -10
129 -7 160 6 52 21 60 15 60 -42z m1496 -36 c38 -10 103 1 145 26 l27 16 88
-79 c145 -129 234 -219 234 -237 0 -34 -30 -50 -84 -42 -109 14 -279 86 -356
150 -24 20 -61 45 -81 56 -48 24 -59 45 -59 109 l0 51 26 -20 c15 -11 41 -25
60 -30z"/>
<path d="M10440 16295 l0 -175 45 0 45 0 0 175 0 175 -45 0 -45 0 0 -175z"/>
<path d="M11097 16443 c-4 -3 -7 -78 -7 -165 l0 -158 265 0 264 0 3 63 c3 57
5 62 26 61 19 0 22 4 22 38 0 21 -4 39 -10 39 -5 1 -16 2 -22 3 -9 1 -14 23
-16 64 l-3 62 -258 0 c-142 0 -261 -3 -264 -7z m488 -158 l0 -130 -232 -3
-233 -2 0 128 c0 71 3 131 6 135 4 3 108 5 233 4 l226 -2 0 -130z"/>
<path d="M11164 16377 c-2 -7 -4 -54 -2 -103 l3 -89 140 0 140 0 0 100 0 100
-138 3 c-108 2 -139 0 -143 -11z"/>
<path d="M6066 16417 c-10 -7 -20 -32 -23 -56 -5 -38 -4 -43 12 -40 10 2 20
15 22 29 8 53 55 63 67 15 8 -33 -5 -62 -53 -120 -43 -51 -55 -80 -49 -112 3
-15 15 -19 71 -21 62 -3 67 -1 67 18 0 17 -6 20 -50 20 -35 0 -50 4 -50 13 0
8 23 42 50 76 45 56 50 68 50 111 0 39 -4 52 -22 64 -27 19 -68 21 -92 3z"/>
<path d="M6230 16403 c-23 -30 -23 -68 0 -68 8 0 16 10 18 23 5 31 36 46 56
26 30 -30 10 -94 -30 -94 -24 0 -15 -27 11 -34 27 -7 41 -41 31 -80 -12 -48
-66 -39 -66 10 0 17 -6 24 -20 24 -27 0 -27 -39 1 -74 15 -19 30 -26 53 -26
60 0 90 67 61 135 -11 29 -12 41 -4 52 7 7 12 32 12 55 0 31 -6 46 -23 60 -33
27 -75 23 -100 -9z"/>
<path d="M6467 16424 c-4 -4 -7 -45 -7 -91 0 -67 3 -83 15 -83 8 0 15 6 15 14
0 20 38 30 55 16 10 -8 15 -31 15 -66 0 -44 -4 -55 -21 -64 -26 -14 -49 3 -49
36 0 18 -6 24 -21 24 -19 0 -21 -4 -15 -32 9 -45 33 -68 72 -68 46 0 74 38 74
101 0 87 -32 129 -84 109 -23 -8 -24 -7 -22 18 2 15 4 32 5 39 0 7 20 13 44
15 29 2 42 8 42 18 0 11 -14 16 -55 18 -31 2 -59 0 -63 -4z"/>
<path d="M6652 16414 c-21 -14 -22 -22 -22 -140 0 -111 2 -126 20 -144 11 -11
33 -20 50 -20 50 0 70 30 70 103 0 49 -4 68 -18 80 -22 20 -63 22 -80 5 -9 -9
-12 -3 -12 29 0 68 49 93 71 37 12 -32 39 -31 39 1 0 54 -69 83 -118 49z m66
-146 c11 -11 18 -118 8 -118 -2 0 -11 -3 -19 -6 -39 -15 -66 86 -31 120 19 19
26 20 42 4z"/>
<path d="M10688 16416 c-48 -17 -88 -43 -88 -57 0 -20 28 -19 66 3 56 33 190
33 251 0 51 -26 76 -28 71 -5 -2 9 -25 28 -53 42 -61 30 -188 39 -247 17z"/>
<path d="M10320 16265 l0 -145 45 0 45 0 0 145 0 145 -45 0 -45 0 0 -145z"/>
<path d="M10210 16250 l0 -130 45 0 46 0 -2 130 -1 130 -44 0 -44 0 0 -130z"/>
<path d="M10090 16231 l0 -111 45 0 46 0 -3 108 -3 107 -42 3 -43 3 0 -110z"/>
<path d="M10683 16320 c-30 -13 -43 -25 -43 -40 0 -25 11 -25 60 0 51 26 131
26 189 0 55 -25 63 -25 59 2 -7 52 -180 77 -265 38z"/>
<path d="M6397 16323 c-13 -12 -7 -43 8 -43 9 0 15 9 15 25 0 24 -10 32 -23
18z"/>
<path d="M10745 16261 c-11 -4 -30 -11 -42 -16 -14 -4 -23 -16 -23 -27 0 -17
4 -19 28 -13 62 16 119 16 157 1 47 -20 45 -20 45 4 0 36 -114 72 -165 51z"/>
<path d="M10752 16198 c-28 -28 -2 -88 38 -88 10 0 26 7 34 16 9 8 16 24 16
34 0 40 -60 66 -88 38z"/>
<path d="M6390 16135 c0 -16 6 -25 15 -25 9 0 15 9 15 25 0 16 -6 25 -15 25
-9 0 -15 -9 -15 -25z"/>
<path d="M23090 16295 l0 -175 45 0 45 0 0 175 0 175 -45 0 -45 0 0 -175z"/>
<path d="M23747 16443 c-4 -3 -7 -78 -7 -165 l0 -158 265 0 265 0 0 60 c0 55
2 60 25 66 20 5 25 12 25 39 0 27 -4 34 -22 37 -21 3 -23 9 -26 66 l-3 62
-258 0 c-142 0 -261 -3 -264 -7z m493 -158 l0 -135 -232 2 -233 3 -3 119 c-1
66 -1 125 2 132 3 8 67 12 235 13 l231 2 0 -136z"/>
<path d="M23820 16285 l0 -106 138 3 137 3 3 103 3 102 -141 0 -140 0 0 -105z"/>
<path d="M18721 16413 c-12 -10 -24 -35 -28 -55 -5 -34 -3 -38 16 -38 16 0 21
6 21 29 0 38 22 56 49 41 42 -22 28 -65 -53 -165 -19 -24 -29 -48 -30 -73 l-1
-37 68 -3 c62 -3 67 -1 67 18 0 17 -6 20 -50 20 -27 0 -50 4 -50 9 0 4 11 23
25 42 73 101 80 113 80 150 0 69 -64 103 -114 62z"/>
<path d="M18887 16413 c-22 -25 -27 -78 -7 -78 8 0 16 10 18 23 2 12 13 27 24
33 18 9 24 8 35 -7 7 -10 13 -31 13 -47 0 -23 -6 -31 -30 -40 -33 -12 -41 -37
-12 -37 28 0 42 -21 42 -62 0 -27 -5 -40 -21 -48 -26 -14 -49 3 -49 36 0 18
-6 24 -21 24 -18 0 -20 -4 -14 -32 10 -46 33 -68 70 -68 60 0 93 76 62 140
-15 29 -15 34 -1 56 21 31 11 88 -19 109 -29 20 -70 19 -90 -2z"/>
<path d="M19117 16418 c-2 -7 -5 -48 -6 -90 -2 -64 1 -78 13 -78 8 0 20 9 26
21 7 13 19 19 33 17 19 -3 22 -10 25 -64 2 -43 -1 -64 -11 -73 -21 -17 -47 -2
-54 30 -8 41 -33 38 -33 -4 0 -41 26 -67 66 -67 48 0 66 20 72 78 7 77 -4 121
-34 132 -17 7 -32 6 -45 0 -17 -10 -19 -7 -19 30 l0 40 45 0 c38 0 45 3 45 20
0 18 -7 20 -59 20 -38 0 -61 -4 -64 -12z"/>
<path d="M19300 16410 c-18 -18 -20 -33 -20 -140 0 -107 2 -122 20 -140 24
-24 67 -26 98 -4 19 13 22 24 22 84 0 83 -15 105 -67 97 l-33 -6 0 43 c0 35 4
45 20 49 22 6 50 -16 50 -39 0 -8 7 -14 15 -14 10 0 15 10 15 29 0 55 -79 82
-120 41z m74 -146 c26 -25 18 -107 -11 -118 -28 -11 -43 14 -43 69 0 49 6 61
32 64 4 1 14 -6 22 -15z"/>
<path d="M23326 16410 c-62 -25 -85 -45 -68 -62 9 -9 22 -6 59 13 66 33 188
34 250 1 52 -27 73 -28 73 -3 0 30 -90 64 -185 68 -63 3 -91 -1 -129 -17z"/>
<path d="M22975 16273 c3 -76 5 -143 5 -150 0 -6 8 -10 18 -8 9 2 29 4 45 4
l27 1 0 145 0 145 -49 0 -50 0 4 -137z"/>
<path d="M22860 16250 l0 -130 45 0 45 0 0 130 0 130 -45 0 -45 0 0 -130z"/>
<path d="M22740 16230 l0 -110 45 0 45 0 0 110 0 110 -45 0 -45 0 0 -110z"/>
<path d="M23333 16320 c-41 -18 -55 -42 -33 -55 5 -3 27 3 49 15 53 27 128 26
192 -1 37 -16 53 -19 61 -11 30 30 -69 72 -166 72 -38 0 -77 -8 -103 -20z"/>
<path d="M19040 16305 c0 -16 6 -25 15 -25 9 0 15 9 15 25 0 16 -6 25 -15 25
-9 0 -15 -9 -15 -25z"/>
<path d="M23399 16261 c-44 -14 -69 -31 -69 -48 0 -12 6 -14 28 -8 63 16 130
17 161 0 36 -18 51 -13 44 14 -3 12 -23 24 -55 35 -55 17 -70 18 -109 7z"/>
<path d="M23406 16194 c-31 -30 -9 -84 34 -84 22 0 50 26 50 46 0 48 -51 71
-84 38z"/>
<path d="M19040 16135 c0 -16 6 -25 15 -25 9 0 15 9 15 25 0 16 -6 25 -15 25
-9 0 -15 -9 -15 -25z"/>
<path d="M8688 13721 c-215 -69 -328 -244 -328 -508 l0 -103 -30 0 -30 0 2
-500 3 -500 535 0 535 0 0 497 0 498 -26 3 -26 3 -6 132 c-6 143 -25 222 -71
301 -51 87 -160 161 -274 185 -81 17 -218 13 -284 -8z m282 -192 c62 -27 122
-93 145 -157 8 -26 18 -95 22 -154 l6 -108 -301 0 -302 0 0 98 c0 112 9 150
49 214 79 124 237 169 381 107z m-78 -768 c29 -26 33 -36 33 -79 0 -40 -5 -56
-24 -76 -14 -14 -30 -26 -37 -26 -10 0 -14 -24 -16 -87 -3 -88 -3 -88 -30 -91
l-28 -3 0 81 0 81 -40 38 c-34 32 -40 44 -40 77 1 72 41 113 112 114 28 0 46
-8 70 -29z"/>
<path d="M6943 11348 c-38 -18 -60 -96 -44 -156 8 -29 28 -56 74 -98 75 -69
97 -100 97 -137 0 -30 -39 -77 -65 -77 -27 0 -55 38 -55 75 0 32 -2 35 -30 35
-27 0 -30 -3 -30 -32 0 -44 29 -100 60 -115 66 -33 151 -1 169 64 6 21 11 47
11 58 -1 41 -39 103 -94 150 -68 57 -90 96 -82 138 8 41 24 57 56 57 33 0 60
-28 60 -63 0 -23 4 -27 30 -27 33 0 35 7 20 59 -16 58 -46 81 -104 80 -28 0
-61 -5 -73 -11z"/>
<path d="M7180 11100 l0 -260 105 0 105 0 0 25 c0 24 -2 25 -75 25 l-75 0 0
95 0 95 58 0 c66 0 72 3 65 31 -5 16 -14 19 -64 19 l-59 0 0 90 0 90 75 0 c73
0 75 1 75 25 l0 25 -105 0 -105 0 0 -260z"/>
<path d="M7480 11332 c-37 -37 -43 -80 -38 -268 2 -115 7 -156 20 -180 42 -77
170 -70 204 11 8 19 14 57 14 85 0 50 -1 51 -27 48 -27 -3 -28 -6 -31 -60 -2
-46 -7 -61 -25 -73 -30 -21 -44 -19 -72 10 -25 24 -25 27 -25 192 0 189 7 213
60 213 41 0 60 -24 60 -76 0 -43 1 -44 31 -44 l31 0 -4 55 c-4 44 -11 62 -33
85 -25 26 -36 30 -83 30 -46 0 -58 -4 -82 -28z"/>
<path d="M7730 11143 c0 -188 2 -223 18 -253 20 -41 53 -60 105 -60 31 0 46 7
73 34 l34 34 0 231 0 231 -25 0 -25 0 0 -220 c0 -207 -1 -221 -20 -240 -11
-11 -29 -20 -40 -20 -11 0 -29 9 -40 20 -19 19 -20 33 -20 240 l0 220 -30 0
-30 0 0 -217z"/>
<path d="M8020 11101 l0 -261 30 0 30 0 0 110 0 110 39 0 c62 0 81 -32 81
-135 l0 -83 30 -4 30 -5 0 84 c0 86 -14 137 -44 162 -15 13 -15 15 3 28 47 32
50 169 6 221 -22 25 -30 27 -114 30 l-91 4 0 -261z m155 195 c14 -10 20 -29
23 -77 5 -81 -8 -99 -71 -106 l-47 -6 0 95 c0 52 3 98 7 101 11 12 69 7 88 -7z"/>
<path d="M8320 11100 l0 -260 105 0 105 0 0 25 c0 24 -2 25 -75 25 l-75 0 0
95 0 95 60 0 c57 0 60 1 60 25 0 24 -3 25 -60 25 l-60 0 0 90 0 90 75 0 c73 0
75 1 75 25 l0 25 -105 0 -105 0 0 -260z"/>
<path d="M8700 11100 l0 -260 30 0 30 0 0 99 0 98 54 6 c97 10 122 44 120 167
-1 122 -31 150 -159 150 l-75 0 0 -260z m155 196 c15 -11 20 -29 23 -83 5 -86
-13 -115 -74 -117 l-39 -1 -3 108 -3 107 39 0 c21 0 47 -6 57 -14z"/>
<path d="M9055 11348 c-5 -16 -95 -486 -95 -499 0 -5 11 -9 24 -9 25 0 29 6
41 68 l7 33 66 -3 67 -3 9 -47 c8 -45 10 -48 38 -48 26 0 29 3 25 23 -3 12
-24 121 -47 242 -23 121 -43 228 -46 238 -6 21 -82 25 -89 5z m74 -219 c11
-64 21 -121 21 -127 0 -8 -20 -12 -55 -12 -30 0 -55 3 -55 8 0 33 55 271 60
260 4 -7 17 -65 29 -129z"/>
<path d="M9286 11198 c51 -152 54 -168 54 -260 l0 -98 30 0 30 0 0 91 c0 84 4
105 55 256 30 91 55 167 55 170 0 2 -12 3 -27 1 -26 -3 -30 -11 -64 -118 -20
-63 -40 -114 -44 -113 -5 1 -25 54 -44 117 l-36 116 -32 0 -32 0 55 -162z"/>
<path d="M9558 11100 l-3 -260 28 0 28 0 -1 178 c-1 97 -1 184 0 192 1 11 80
-352 80 -367 0 -2 13 -3 29 -3 33 0 28 -16 71 205 17 87 33 161 35 164 3 2 5
-80 5 -182 l0 -187 30 0 30 0 -2 258 -3 257 -40 3 -40 3 -39 -196 c-21 -107
-41 -195 -45 -195 -3 0 -24 88 -46 195 l-39 195 -38 0 -37 0 -3 -260z"/>
<path d="M9950 11100 l0 -260 105 0 105 0 0 25 c0 24 -2 25 -75 25 l-75 0 0
95 0 95 60 0 c57 0 60 1 60 25 0 24 -3 25 -60 25 l-60 0 0 90 0 90 75 0 c73 0
75 1 75 25 l0 25 -105 0 -105 0 0 -260z"/>
<path d="M10217 11353 c-4 -3 -7 -120 -7 -260 l0 -253 30 0 30 0 1 203 c0 111
2 198 4 192 2 -5 31 -97 65 -202 l61 -193 30 0 29 0 0 260 0 260 -25 0 -25 0
-1 -182 -1 -183 -59 183 -60 182 -33 0 c-18 0 -36 -3 -39 -7z"/>
<path d="M10500 11336 c0 -23 5 -25 48 -28 l47 -3 3 -232 2 -233 30 0 30 0 0
235 0 235 45 0 c41 0 45 2 45 25 l0 25 -125 0 -125 0 0 -24z"/>
<path d="M7125 10239 c-27 -11 -59 -27 -70 -37 -32 -27 -71 -84 -84 -121 -8
-26 -11 -305 -11 -1035 l0 -1001 26 -52 c28 -58 69 -97 131 -125 40 -17 105
-18 1701 -16 l1660 3 54 38 c37 25 64 54 84 90 l29 52 3 995 c3 1132 7 1066
-78 1150 -86 87 61 80 -1774 79 -1589 0 -1622 0 -1671 -20z m3332 -35 c57 -19
97 -54 126 -109 16 -31 21 -59 21 -123 l1 -82 -1802 -3 -1803 -2 0 85 c0 76 3
91 30 136 29 51 74 88 128 104 15 5 752 9 1639 9 1452 1 1617 -1 1660 -15z
m151 -1591 l-3 -568 -28 -48 c-15 -26 -47 -60 -69 -75 l-42 -27 -1640 -3
c-1163 -2 -1652 0 -1679 8 -49 14 -106 65 -128 115 -17 37 -19 80 -19 603 l0
562 1805 0 1806 0 -3 -567z"/>
<path d="M9855 8801 c-70 -43 -70 -43 -73 -265 -4 -225 1 -248 63 -286 29 -18
51 -20 229 -20 220 0 239 4 276 64 20 34 21 45 18 240 -3 202 -3 205 -28 231
-48 52 -65 55 -267 55 -166 0 -192 -2 -218 -19z m418 -32 c54 -28 57 -39 57
-247 l0 -194 -29 -29 -29 -29 -196 0 c-192 0 -195 0 -223 24 l-28 24 -3 188
c-4 204 2 235 47 259 33 18 370 21 404 4z"/>
<path d="M7317 8402 c-24 -5 -25 -177 -1 -186 9 -3 310 -6 669 -6 754 0 678
-13 673 113 l-3 72 -661 5 c-363 3 -668 4 -677 2z m1287 -38 c12 -5 16 -20 16
-60 l0 -54 -640 0 -640 0 0 53 c0 30 3 57 7 60 8 9 1236 9 1257 1z"/>
<path d="M19023 11653 l-253 -3 0 -1674 c0 -1487 2 -1675 15 -1680 9 -3 1309
-3 2890 1 l2875 6 -2 1676 -3 1676 -2635 0 c-1449 0 -2749 -1 -2887 -2z m5487
-1673 l0 -1640 -1477 0 c-813 0 -2096 -3 -2850 -7 l-1373 -6 0 1641 0 1642
233 3 c127 1 1410 3 2850 5 l2617 2 0 -1640z"/>
<path d="M19357 11413 c-4 -3 -7 -21 -7 -38 0 -45 -49 -108 -99 -129 -57 -22
-90 -20 -145 9 l-46 24 0 -1304 c0 -718 1 -1305 3 -1305 1 0 24 11 51 25 58
29 81 31 137 9 47 -19 99 -83 99 -123 0 -14 4 -32 8 -39 7 -10 486 -12 2363
-10 l2354 3 6 43 c9 72 66 129 137 139 l42 6 0 1252 c0 1133 -2 1253 -16 1259
-9 3 -25 6 -36 6 -54 0 -120 70 -133 143 l-7 37 -2352 0 c-1294 0 -2356 -3
-2359 -7z m4683 -56 c0 -41 54 -112 102 -136 24 -11 52 -21 61 -21 16 0 17
-83 17 -1220 l0 -1219 -38 -11 c-55 -14 -109 -66 -131 -125 l-19 -50 -2317 -3
-2317 -2 -5 21 c-32 119 -150 189 -266 156 l-27 -7 2 1232 c3 1090 5 1233 18
1230 54 -13 85 -13 125 -2 61 17 121 77 137 135 l12 45 2323 0 2323 0 0 -23z"/>
<path d="M21545 10833 c-310 -49 -568 -249 -681 -528 -51 -124 -68 -227 -61
-369 9 -215 85 -397 227 -550 419 -450 1166 -323 1422 241 65 145 88 368 53
533 -65 310 -311 566 -625 651 -74 20 -268 33 -335 22z m213 -259 c3 -38 6
-42 42 -53 48 -14 112 -84 129 -140 6 -22 14 -76 18 -121 l6 -80 -92 0 -91 0
0 64 c0 86 -11 113 -52 124 -90 24 -141 -43 -114 -148 16 -61 37 -87 154 -190
144 -127 182 -196 182 -329 0 -132 -54 -229 -144 -262 -20 -7 -36 -18 -37 -24
0 -5 -2 -23 -2 -40 l-2 -30 -72 -3 -73 -3 0 40 c0 38 -2 41 -47 61 -89 39
-126 94 -143 207 -5 37 -10 74 -10 81 0 9 25 12 90 12 l90 0 0 -45 c0 -61 17
-92 56 -105 91 -30 146 79 93 187 -13 27 -59 78 -128 140 -128 116 -165 166
-187 252 -39 153 34 331 145 356 28 6 31 10 31 44 0 21 3 41 7 45 4 4 39 5 78
4 l70 -3 3 -41z"/>
<path d="M22257 7605 c-15 -9 -65 -67 -112 -130 -47 -63 -88 -115 -91 -115 -4
0 -37 20 -74 45 -149 99 -302 140 -489 132 -132 -5 -204 -22 -310 -73 -305
-143 -484 -441 -468 -778 6 -130 23 -201 77 -313 108 -227 302 -385 545 -444
111 -26 284 -26 391 1 229 58 429 220 534 433 60 123 82 218 82 362 -1 135
-20 226 -71 340 -17 37 -28 72 -24 79 4 6 51 70 105 142 54 73 103 147 108
165 13 45 -3 98 -40 134 -36 35 -118 45 -163 20z m132 -46 c32 -30 44 -67 32
-99 -5 -15 -190 -268 -411 -563 l-402 -536 -22 27 c-13 15 -116 151 -229 303
-229 306 -234 316 -181 378 21 26 33 31 67 31 23 0 49 -6 58 -13 9 -7 77 -94
153 -194 86 -115 143 -183 154 -183 11 1 135 159 327 416 171 229 321 424 334
435 32 26 91 25 120 -2z"/>
<path d="M3745 10051 c-48 -12 -75 -30 -75 -51 0 -24 -3 -24 55 1 36 16 58 19
91 14 36 -5 44 -3 44 10 0 28 -54 40 -115 26z"/>
<path d="M3418 10004 c-50 -15 -66 -30 -50 -46 6 -6 25 -4 56 6 26 9 69 16 96
16 36 0 50 4 50 14 0 28 -77 33 -152 10z"/>
<path d="M3855 9924 c-15 -11 -38 -15 -89 -12 -49 2 -70 -1 -73 -9 -13 -36
148 -43 187 -8 39 35 17 61 -25 29z"/>
<path d="M3380 9887 c0 -23 32 -37 84 -37 57 0 96 15 96 36 0 14 -6 15 -32 9
-40 -10 -83 -10 -120 0 -22 6 -28 4 -28 -8z"/>
<path d="M3684 9714 c-19 -26 -21 -26 -57 -14 -20 8 -39 11 -43 7 -27 -26 62
-68 101 -47 21 11 45 49 45 70 0 19 -26 9 -46 -16z"/>
<path d="M3700 9619 c-26 -14 -45 -18 -73 -13 -34 5 -38 4 -35 -12 4 -21 52
-36 90 -28 34 7 78 41 78 60 0 18 -17 16 -60 -7z"/>
<path d="M3835 7698 c-95 -122 -298 -351 -352 -398 -48 -42 -59 -60 -42 -70 8
-5 25 1 46 17 87 66 453 498 453 535 0 37 -27 15 -105 -84z"/>
<path d="M3318 7169 c-48 -31 -63 -59 -31 -59 24 0 113 60 113 76 0 23 -32 16
-82 -17z"/>
<path d="M13845 16941 c-29 -10 -51 -25 -53 -34 -4 -21 12 -21 74 -1 56 19 76
32 68 45 -8 13 -32 10 -89 -10z"/>
<path d="M13618 16868 c-52 -18 -72 -38 -50 -52 15 -9 137 39 137 54 0 22 -23
21 -87 -2z"/>
<path d="M13400 16786 c-31 -13 -56 -29 -58 -39 -5 -22 11 -21 80 5 40 16 58
28 58 40 0 23 -13 22 -80 -6z"/>
<path d="M13180 16696 c-57 -25 -79 -56 -40 -56 31 0 120 48 120 65 0 20 -15
18 -80 -9z"/>
<path d="M12961 16595 c-52 -26 -73 -55 -41 -55 31 0 122 49 117 63 -6 19 -28
16 -76 -8z"/>
<path d="M27233 8983 c-8 -3 -10 -26 -6 -78 5 -63 3 -80 -16 -115 -24 -47 -27
-70 -7 -70 19 0 52 43 67 87 24 72 -1 190 -38 176z"/>
<path d="M27630 8921 c0 -13 11 -23 34 -31 60 -20 121 -74 145 -129 30 -71 70
-70 51 1 -14 50 -81 122 -142 152 -62 31 -88 33 -88 7z"/>
<path d="M27495 8748 c-9 -24 -19 -49 -22 -55 -3 -9 5 -13 24 -13 33 0 52 13
77 53 17 27 17 29 -1 43 -35 26 -59 17 -78 -28z"/>
<path d="M27016 8734 c-6 -17 39 -113 61 -129 11 -8 3 -20 -37 -60 -50 -50
-57 -51 -72 -13 -2 3 -40 29 -86 56 -89 54 -203 98 -228 88 -31 -12 -9 -38 46
-55 63 -20 134 -56 200 -100 25 -17 53 -31 63 -31 12 0 -6 -27 -63 -92 -44
-51 -80 -100 -80 -110 0 -22 35 -25 47 -4 23 41 188 216 265 282 48 41 88 80
88 85 0 22 -33 19 -66 -6 -19 -15 -37 -25 -38 -24 -2 2 -16 28 -31 57 -32 59
-59 81 -69 56z"/>
<path d="M27992 8704 c3 -17 16 -20 108 -26 128 -9 266 -38 368 -78 75 -29
101 -28 89 3 -7 19 -92 51 -217 84 -66 17 -134 26 -224 30 -122 6 -128 5 -124
-13z"/>
<path d="M27914 8665 c-4 -9 -4 -40 0 -70 l6 -53 -38 8 c-77 16 -142 18 -154
3 -19 -24 3 -32 97 -35 l90 -3 10 -40 c8 -30 17 -41 33 -43 20 -3 22 0 16 23
-3 14 -9 69 -13 123 -5 81 -9 97 -24 100 -9 2 -20 -4 -23 -13z"/>
<path d="M27247 8626 c-3 -7 5 -30 18 -51 22 -37 23 -37 34 -17 15 29 14 39
-9 62 -23 23 -36 25 -43 6z"/>
<path d="M27084 8506 c-3 -8 -1 -23 5 -35 6 -11 11 -67 11 -124 0 -82 3 -106
14 -110 31 -12 39 20 34 137 -4 115 -14 146 -45 146 -7 0 -16 -6 -19 -14z"/>
<path d="M28004 8467 c-8 -22 5 -40 23 -33 21 8 73 -18 160 -81 79 -56 103
-64 103 -34 0 28 -187 151 -240 158 -30 4 -41 2 -46 -10z"/>
<path d="M27263 8388 c8 -31 52 -353 72 -523 10 -77 18 -142 20 -143 5 -5 25
69 25 91 0 9 -7 17 -15 17 -12 0 -9 12 12 55 l27 55 -20 27 c-26 36 -31 52
-54 206 -20 135 -47 237 -63 237 -5 0 -7 -10 -4 -22z"/>
<path d="M27427 8249 c-20 -27 -22 -50 -6 -66 29 -29 50 20 30 71 -7 18 -8 18
-24 -5z"/>
<path d="M26736 8196 c-40 -48 -46 -76 -17 -76 23 0 92 86 84 106 -9 25 -31
15 -67 -30z"/>
<path d="M27582 8176 c-32 -30 -35 -35 -19 -42 28 -11 115 45 102 66 -12 19
-46 10 -83 -24z"/>
<path d="M27953 7972 c-23 -9 -44 -20 -47 -23 -4 -3 9 -18 29 -33 34 -27 35
-27 81 -11 26 9 48 14 49 13 1 -2 9 -24 19 -50 13 -35 23 -48 37 -48 23 0 24
19 5 65 -13 31 -13 36 1 43 12 7 3 15 -42 36 -66 30 -76 31 -132 8z"/>
<path d="M26177 7954 c-4 -4 -4 -37 -1 -73 5 -49 2 -76 -10 -105 -20 -48 -20
-66 -1 -66 46 0 76 182 37 230 -9 12 -21 18 -25 14z"/>
<path d="M27765 7900 c-11 -18 5 -30 98 -77 125 -62 244 -131 289 -165 37 -29
58 -30 58 -3 0 24 -128 103 -336 209 -100 50 -100 50 -109 36z"/>
<path d="M28327 7747 c-51 -123 -57 -150 -30 -145 10 2 32 40 58 103 34 80 46
99 61 97 11 -1 41 -6 67 -11 31 -5 79 -4 135 5 48 7 113 10 146 7 53 -6 58 -4
54 13 -5 28 -85 40 -171 26 -92 -16 -166 -15 -217 3 -23 8 -45 15 -49 15 -4 0
-28 -51 -54 -113z"/>
<path d="M27653 7718 c-40 -56 -64 -104 -56 -112 4 -3 23 -6 43 -6 33 0 40 5
78 61 23 33 42 64 42 69 0 7 -53 30 -70 30 -4 0 -20 -19 -37 -42z"/>
<path d="M25984 7706 c-6 -15 38 -93 64 -113 13 -11 9 -19 -32 -63 -35 -37
-48 -46 -52 -35 -4 8 -36 32 -72 52 -129 72 -268 107 -260 66 2 -12 17 -20 48
-25 25 -4 97 -33 161 -65 l116 -57 -68 -89 c-38 -49 -69 -95 -69 -103 0 -35
39 -7 95 68 33 44 106 129 163 188 56 59 102 110 102 114 0 15 -41 4 -67 -18
l-29 -25 -33 54 c-34 56 -58 74 -67 51z"/>
<path d="M26793 7663 c-25 -9 -14 -41 18 -52 74 -26 158 -121 174 -199 5 -23
12 -32 23 -30 45 9 10 116 -62 192 -44 46 -132 96 -153 89z"/>
<path d="M26210 7616 c0 -8 25 -53 55 -101 52 -83 109 -212 122 -276 4 -20 11
-29 25 -29 18 0 19 5 13 43 -14 79 -69 200 -142 310 -42 63 -73 85 -73 53z"/>
<path d="M26375 7530 c-5 -8 23 -50 34 -50 5 0 11 11 13 24 4 19 0 25 -19 29
-13 2 -25 1 -28 -3z"/>
<path d="M28403 7525 c-7 -19 -10 -16 62 -53 74 -37 161 -96 212 -143 50 -46
73 -55 73 -28 0 36 -135 141 -267 208 -72 36 -72 36 -80 16z"/>
<path d="M28200 7461 c-24 -48 -40 -69 -50 -66 -97 28 -382 33 -516 10 -142
-25 -182 -40 -171 -68 4 -11 21 -9 99 11 82 22 114 25 278 26 223 1 305 -8
295 -32 -18 -47 -159 -269 -241 -379 -89 -118 -101 -143 -70 -143 13 0 78 78
150 180 108 153 303 501 291 520 -14 23 -32 6 -65 -59z"/>
<path d="M26064 7495 c-4 -8 -1 -21 5 -29 6 -7 14 -60 19 -117 5 -82 10 -104
22 -104 23 0 20 204 -4 239 -19 29 -34 33 -42 11z"/>
<path d="M26445 7450 c-6 -10 65 -114 72 -106 2 1 -8 28 -22 59 -24 56 -37 68
-50 47z"/>
<path d="M27170 7365 c0 -20 26 -31 88 -38 49 -6 52 -5 52 17 0 18 -7 25 -31
30 -58 11 -109 7 -109 -9z"/>
<path d="M27087 7334 c-14 -14 -6 -266 12 -410 11 -82 22 -232 26 -334 3 -102
8 -212 10 -245 6 -81 23 -454 31 -708 6 -185 9 -208 23 -204 9 3 44 13 78 22
l63 18 -1 224 -1 223 -26 -6 c-15 -4 -31 -10 -35 -14 -5 -4 -11 -54 -14 -111
-3 -57 -7 -106 -9 -108 -2 -2 -5 30 -5 72 -1 42 -2 89 -4 105 -1 15 -5 127 -9
249 -7 216 -7 221 12 216 11 -2 22 -1 25 4 7 10 -30 163 -43 178 -4 6 -11 114
-15 240 -7 241 -14 275 -54 275 -17 0 -19 11 -24 123 -3 67 -5 138 -4 157 2
33 -18 52 -36 34z"/>
<path d="M28180 7241 c0 -10 12 -27 27 -36 88 -58 175 -183 189 -273 5 -32 11
-42 23 -40 12 3 16 14 14 46 -4 85 -80 204 -180 284 -53 42 -73 47 -73 19z"/>
<path d="M25750 7186 c-33 -48 -38 -76 -15 -76 19 0 78 87 71 106 -9 24 -24
16 -56 -30z"/>
<path d="M27680 7223 c1 -5 21 -17 45 -29 39 -18 47 -19 57 -6 10 11 9 17 -7
28 -20 15 -95 20 -95 7z"/>
<path d="M26854 7208 c-12 -19 22 -34 111 -47 64 -10 90 -10 98 -2 18 18 -2
29 -81 46 -88 18 -118 19 -128 3z"/>
<path d="M27443 7122 c-35 -19 -45 -31 -53 -65 -6 -23 -12 -46 -13 -50 -1 -5
-20 6 -42 24 -60 47 -134 80 -157 68 -10 -5 -18 -19 -18 -29 0 -16 7 -20 33
-20 19 -1 48 -12 72 -30 22 -16 52 -37 68 -47 15 -9 27 -26 27 -38 0 -17 -19
-138 -34 -215 -20 -103 -54 -435 -55 -540 l-1 -65 19 41 c10 22 30 58 43 80
22 34 28 66 47 229 12 104 22 190 24 191 1 2 25 -15 52 -36 l50 -40 3 30 c2
20 -11 53 -42 107 -42 74 -44 80 -35 118 6 22 12 56 14 75 2 19 13 73 25 120
28 114 26 122 -27 92z"/>
<path d="M26603 7037 c-28 -27 -28 -24 -3 -82 l20 -46 30 18 c16 9 30 23 30
29 0 20 -39 104 -47 103 -4 0 -18 -10 -30 -22z"/>
<path d="M26975 6935 c-152 -49 -244 -91 -317 -144 -47 -34 -63 -55 -52 -72 9
-16 23 -10 78 31 65 49 161 94 291 135 81 25 100 35 100 51 0 26 -19 26 -100
-1z"/>
<path d="M27677 6712 c-41 -41 -47 -62 -19 -62 20 0 92 69 92 88 0 24 -37 11
-73 -26z"/>
<path d="M26756 6623 l-25 -38 42 -130 42 -130 6 65 c4 36 10 73 13 82 7 15
-39 188 -49 188 -3 0 -16 -17 -29 -37z"/>
<path d="M28352 6523 c-20 -21 -55 -68 -78 -104 -41 -62 -86 -109 -148 -154
l-28 -20 60 -115 c32 -63 64 -116 71 -118 28 -9 18 34 -28 127 -28 56 -47 101
-42 101 21 0 121 104 150 155 17 29 51 75 76 100 25 26 43 51 39 56 -11 18
-38 8 -72 -28z"/>
<path d="M26844 6204 c4 -16 8 -29 9 -30 1 0 21 -7 45 -16 46 -18 47 -16 31
31 -8 23 -17 31 -34 31 -13 0 -31 3 -41 7 -15 5 -16 2 -10 -23z"/>
<path d="M28645 6165 c-128 -24 -275 -83 -275 -110 0 -20 19 -19 71 4 66 29
206 68 273 75 67 7 71 9 63 31 -8 18 -36 18 -132 0z"/>
<path d="M26046 6071 c-9 -14 21 -34 149 -101 66 -34 138 -75 159 -91 39 -28
56 -30 56 -4 0 21 -50 55 -197 134 -130 70 -157 80 -167 62z"/>
<path d="M26519 5994 c-11 -27 -29 -70 -41 -96 -21 -48 -19 -82 5 -72 8 3 28
40 46 82 l31 77 166 2 c91 2 170 5 175 9 6 3 5 11 -2 21 -10 12 -38 14 -153
11 -78 -1 -156 1 -174 6 -31 8 -32 8 -53 -40z"/>
<path d="M27625 6020 c-37 -13 -55 -25 -70 -51 l-20 -34 -3 27 -3 26 -62 -20
c-34 -11 -65 -23 -68 -27 -4 -3 -10 -28 -14 -55 -8 -57 -22 -56 130 -1 99 36
100 37 133 92 18 31 31 57 30 58 -2 0 -25 -6 -53 -15z"/>
<path d="M28006 5965 c-164 -57 -335 -129 -340 -142 -11 -28 23 -23 125 18
152 61 299 109 332 109 22 0 28 4 25 18 -5 26 -62 25 -142 -3z"/>
<path d="M28258 5938 c-3 -7 9 -46 26 -87 25 -60 28 -75 17 -79 -20 -7 -134
-114 -200 -187 -141 -158 -260 -375 -204 -375 4 0 26 34 47 76 52 101 135 215
226 311 104 109 151 147 161 131 27 -42 115 -347 145 -500 14 -75 20 -88 36
-88 18 0 19 5 13 53 -26 193 -207 747 -248 755 -8 2 -17 -3 -19 -10z"/>
<path d="M26687 5864 c-18 -18 -5 -54 30 -83 21 -17 41 -31 45 -31 3 0 -4 26
-17 58 -22 53 -41 72 -58 56z"/>
<path d="M26944 5793 c3 -10 8 -36 12 -58 3 -22 9 -45 13 -52 5 -10 77 -63 85
-63 3 0 -23 143 -27 145 -39 23 -79 45 -83 45 -3 0 -3 -8 0 -17z"/>
<path d="M26423 5768 c-6 -7 -20 -32 -32 -56 -21 -42 -22 -42 -64 -35 -23 5
-118 8 -212 7 -133 -1 -185 -5 -240 -20 -57 -15 -70 -23 -70 -39 0 -23 -4 -23
120 5 76 18 113 20 235 16 208 -6 201 0 130 -119 -64 -107 -137 -212 -182
-265 -32 -37 -36 -62 -10 -62 18 0 104 109 184 235 72 112 179 309 176 324 -4
20 -23 24 -35 9z"/>
<path d="M26556 5771 c-7 -11 6 -21 80 -60 34 -18 92 -57 129 -87 43 -34 72
-51 78 -45 5 5 7 16 4 25 -9 23 -114 102 -188 141 -68 36 -93 42 -103 26z"/>
<path d="M28498 5740 c-56 -10 -68 -16 -68 -36 0 -13 9 -14 58 -7 31 4 96 8
143 8 76 -1 94 -5 150 -32 35 -18 67 -29 71 -27 31 20 -30 66 -117 89 -62 16
-159 18 -237 5z"/>
<path d="M26384 5548 c-4 -6 15 -32 48 -62 65 -60 118 -139 118 -176 0 -14 7
-35 15 -46 13 -16 16 -17 25 -4 22 34 -21 147 -82 210 -44 45 -97 90 -108 90
-5 0 -12 -5 -16 -12z"/>
<path d="M27390 5521 c-6 -24 -10 -44 -8 -45 10 -8 72 -36 74 -33 2 1 -10 29
-26 61 l-28 60 -12 -43z"/>
<path d="M27501 5421 c-17 -11 -5 -91 14 -91 11 0 25 48 25 88 0 14 -19 16
-39 3z"/>
<path d="M26973 5399 c-15 -15 7 -69 29 -69 24 0 29 13 17 49 -11 32 -27 39
-46 20z"/>
<path d="M26873 5353 c-18 -2 -33 -7 -33 -11 0 -15 34 -102 40 -102 3 0 19 14
35 30 25 26 27 34 19 57 -10 29 -15 31 -61 26z"/>
<path d="M27176 5285 c6 -116 28 -150 67 -107 30 33 40 78 25 109 -12 25 -70
73 -88 73 -4 0 -6 -34 -4 -75z"/>
<path d="M27387 5268 c13 -53 8 -132 -10 -159 -22 -31 -21 -49 2 -49 27 0 61
74 61 132 0 63 -17 108 -42 108 -17 0 -19 -4 -11 -32z"/>
<path d="M27500 5216 c0 -21 11 -27 93 -56 50 -17 106 -40 123 -50 39 -22 94
-35 94 -22 0 23 -102 82 -198 116 -57 20 -106 36 -108 36 -2 0 -4 -11 -4 -24z"/>
<path d="M25983 5120 c-35 -32 -43 -60 -17 -60 20 0 74 54 74 74 0 24 -21 19
-57 -14z"/>
<path d="M26877 5103 c-26 -7 -10 -23 23 -23 18 0 33 -7 39 -19 6 -10 23 -21
38 -24 15 -3 37 -9 47 -13 16 -6 18 -4 14 13 -4 16 0 23 14 26 26 7 18 30 -13
38 -27 8 -135 9 -162 2z"/>
<path d="M27080 5046 c0 -42 10 -56 41 -56 15 0 10 68 -7 84 -25 26 -34 19
-34 -28z"/>
<path d="M27200 5046 c0 -21 61 -116 74 -116 5 0 -12 -22 -38 -49 -47 -48 -50
-49 -65 -31 -22 27 -155 95 -220 114 -75 22 -101 21 -101 -4 0 -15 7 -20 25
-20 36 0 148 -44 215 -85 32 -19 65 -35 74 -35 11 0 -3 -24 -45 -77 -73 -92
-87 -119 -72 -134 13 -13 12 -13 103 106 62 81 217 245 232 245 4 0 8 9 8 20
0 29 -28 25 -63 -7 -17 -16 -31 -23 -34 -17 -23 63 -93 131 -93 90z"/>
<path d="M28510 5046 c-3 -2 -3 -35 0 -73 4 -55 8 -68 23 -71 16 -3 18 4 15
70 -2 56 -7 73 -18 76 -9 1 -18 1 -20 -2z"/>
<path d="M27426 4965 c-3 -8 16 -45 41 -82 54 -80 104 -185 128 -265 18 -63
24 -71 44 -58 29 17 -54 225 -140 351 -40 59 -64 77 -73 54z"/>
<path d="M27278 4848 c-3 -7 1 -24 8 -38 7 -14 14 -67 17 -118 3 -52 8 -96 11
-99 3 -3 13 -3 22 1 15 6 16 18 10 101 -3 52 -11 107 -17 122 -14 39 -43 56
-51 31z"/>
<path d="M26875 4812 c-154 -62 -275 -137 -275 -171 0 -26 31 -20 75 14 59 44
190 108 272 132 62 18 79 35 47 47 -26 10 -46 6 -119 -22z"/>
<path d="M27211 4636 c-8 -10 -10 -32 -7 -63 4 -34 3 -42 -3 -28 -7 14 -10 -3
-10 -62 -1 -46 1 -83 4 -83 9 0 66 195 63 219 -3 30 -29 39 -47 17z"/>
<path d="M27454 4598 c7 -70 11 -79 41 -101 25 -18 25 -18 25 10 0 15 -16 55
-36 88 l-35 60 5 -57z"/>
<path d="M26981 4551 c-31 -34 -49 -76 -37 -89 20 -19 91 83 76 108 -7 11 -15
7 -39 -19z"/>
</g>
</svg>
